<?xml version="1.0" standalone="no"?>
<!DOCTYPE svg PUBLIC "-//W3C//DTD SVG 20010904//EN"
 "http://www.w3.org/TR/2001/REC-SVG-20010904/DTD/svg10.dtd">
<svg version="1.0" xmlns="http://www.w3.org/2000/svg"
 width="600.000000pt" height="600.000000pt" viewBox="0 0 600.000000 600.000000"
 preserveAspectRatio="xMidYMid meet">

<g transform="translate(0.000000,600.000000) scale(0.100000,-0.100000)"
fill="#ffffff" stroke="none">
<path d="M4044 5156 c-189 -31 -341 -103 -455 -216 -69 -68 -149 -186 -149
-219 0 -7 21 3 48 22 68 50 159 93 259 123 76 23 108 27 228 28 128 1 256 -14
294 -34 8 -4 -14 -14 -55 -24 -100 -25 -324 -111 -436 -167 -170 -86 -323
-188 -316 -211 5 -14 128 -66 216 -90 65 -19 105 -22 257 -22 178 -1 181 -1
275 32 226 79 393 239 530 509 27 54 50 107 50 118 0 15 -16 27 -63 46 -227
97 -488 137 -683 105z"/>
<path d="M3012 4745 l-52 -24 7 -58 c16 -116 8 -717 -10 -898 -10 -93 -21
-180 -24 -192 -4 -19 2 -26 43 -44 61 -27 179 -36 257 -19 31 6 59 15 61 19 3
4 -13 42 -35 84 -122 233 -139 614 -44 1007 29 118 28 120 -45 140 -56 16
-101 12 -158 -15z"/>
<path d="M2487 4424 c-327 -59 -570 -294 -696 -674 -17 -52 -34 -113 -38 -134
l-6 -39 179 6 c352 12 564 78 704 217 77 76 113 140 140 246 22 84 27 194 9
194 -20 0 -285 -80 -463 -140 -99 -33 -181 -58 -183 -56 -3 3 302 179 559 322
48 27 88 52 88 55 0 8 -108 19 -169 18 -25 0 -81 -7 -124 -15z"/>
<path d="M1177 3383 c-10 -17 -57 -203 -73 -288 -22 -121 -30 -455 -15 -582
98 -791 651 -1451 1406 -1679 193 -59 453 -91 640 -80 507 31 947 227 1300
581 295 295 481 657 556 1080 19 106 23 167 23 330 0 219 -15 347 -63 535 -26
103 -27 105 -56 108 -28 3 -370 -35 -1395 -154 -217 -26 -422 -46 -455 -46
-33 1 -271 26 -530 56 -636 75 -1272 146 -1306 146 -15 0 -30 -3 -32 -7z
m1477 -289 c45 -46 26 -140 -33 -159 -10 -3 -266 -37 -567 -74 -484 -61 -553
-67 -581 -56 -40 17 -67 66 -58 105 7 31 56 80 80 80 12 0 435 53 870 109 77
10 168 19 201 20 54 1 65 -2 88 -25z m1384 -34 c595 -75 590 -75 618 -100 47
-45 32 -129 -29 -155 -30 -12 -52 -12 -183 5 -82 11 -318 40 -524 65 -471 57
-444 52 -474 80 -20 19 -26 34 -26 69 0 37 5 48 31 70 22 19 42 26 71 26 22 0
254 -27 516 -60z m-1288 -215 c37 -19 50 -43 50 -91 0 -30 -8 -44 -42 -78 -51
-49 -773 -687 -831 -733 -80 -66 -177 -31 -177 64 0 37 25 64 180 199 176 153
553 487 629 557 106 98 136 110 191 82z m684 5 c23 -8 811 -700 884 -776 41
-43 43 -89 6 -133 -21 -26 -33 -31 -69 -31 -52 0 -34 -14 -375 289 -469 418
-558 500 -567 529 -15 42 3 90 40 112 36 23 46 24 81 10z m-167 -226 c18 -28
313 -1195 313 -1240 0 -90 -126 -126 -175 -50 -17 26 -315 1198 -315 1239 0
83 131 121 177 51z m-276 7 c18 -18 29 -40 29 -57 0 -25 -61 -269 -236 -944
-67 -259 -77 -287 -104 -312 -42 -39 -92 -38 -131 1 -18 19 -29 40 -29 58 0
24 109 462 265 1068 50 193 64 215 136 215 31 0 47 -7 70 -29z"/>
</g>
</svg>
