<?xml version="1.0" standalone="no"?>
<!DOCTYPE svg PUBLIC "-//W3C//DTD SVG 20010904//EN"
 "http://www.w3.org/TR/2001/REC-SVG-20010904/DTD/svg10.dtd">
<svg version="1.0" xmlns="http://www.w3.org/2000/svg"
 width="1024.000000pt" height="1024.000000pt" viewBox="0 0 1024.000000 1024.000000"
 preserveAspectRatio="xMidYMid meet">

<g transform="translate(0.000000,1024.000000) scale(0.100000,-0.100000)"
fill="#000000" stroke="none">
<path d="M0 5120 l0 -5120 5120 0 5120 0 0 5120 0 5120 -5120 0 -5120 0 0
-5120z m6497 2234 c128 -26 373 -111 373 -129 0 -3 -20 -47 -44 -98 -140 -293
-326 -471 -576 -549 -67 -21 -93 -23 -250 -22 -190 0 -263 13 -393 71 -93 40
-93 40 -39 83 150 119 479 274 715 335 40 11 63 21 55 25 -69 37 -374 47 -493
16 -88 -23 -221 -84 -286 -132 -27 -19 -49 -30 -49 -23 0 33 80 151 151 221
64 64 94 85 181 126 161 78 287 104 470 97 58 -3 141 -12 185 -21z m-1257
-384 c73 -20 74 -22 45 -140 -95 -393 -78 -774 44 -1007 22 -42 38 -80 35 -84
-2 -4 -30 -13 -61 -19 -78 -17 -196 -8 -257 19 -41 18 -47 25 -43 44 3 12 14
99 24 192 18 181 26 782 10 898 l-7 58 52 24 c57 27 102 31 158 15z m-451
-326 c33 -4 61 -10 61 -13 0 -3 -44 -30 -98 -60 -234 -130 -552 -314 -549
-317 2 -2 77 21 168 52 174 58 458 144 478 144 16 0 14 -114 -4 -185 -40 -158
-136 -278 -280 -352 -152 -78 -311 -111 -577 -120 l-178 -6 20 72 c107 383
295 624 571 731 129 50 257 67 388 54z m2215 -1087 c59 -202 80 -365 80 -602
0 -222 -19 -367 -75 -560 -191 -668 -738 -1200 -1407 -1370 -298 -75 -588 -81
-884 -19 -507 107 -965 424 -1253 867 -110 169 -225 442 -270 640 -49 215 -59
514 -25 744 23 162 68 333 88 341 16 6 162 -10 982 -104 311 -36 636 -74 723
-84 l159 -18 241 28 c133 16 368 43 522 60 333 39 1087 127 1097 129 4 0 13
-23 22 -52z"/>
<path d="M4435 5309 c-454 -58 -858 -109 -872 -109 -23 0 -83 -65 -83 -89 0
-37 30 -82 63 -96 28 -11 96 -5 581 56 301 37 557 71 567 74 59 19 78 109 32
157 -24 25 -33 28 -87 27 -34 -1 -124 -10 -201 -20z"/>
<path d="M5521 5304 c-64 -53 -29 -155 57 -168 20 -3 188 -24 372 -46 184 -23
420 -52 524 -65 219 -28 245 -24 272 40 29 70 -9 120 -102 135 -127 20 -1015
130 -1052 130 -29 0 -49 -7 -71 -26z"/>
<path d="M4724 5051 c-17 -10 -60 -46 -95 -78 -35 -33 -221 -198 -414 -367
-192 -169 -360 -321 -372 -338 -30 -41 -29 -79 3 -117 21 -26 33 -31 69 -31
51 0 24 -22 375 290 146 129 333 295 417 368 83 73 154 140 157 149 9 23 7 72
-4 94 -12 22 -60 49 -87 49 -10 0 -32 -9 -49 -19z"/>
<path d="M5430 5057 c-14 -7 -33 -29 -43 -49 -16 -32 -16 -40 -4 -70 8 -18 54
-69 103 -114 208 -188 742 -662 771 -683 46 -35 100 -31 135 8 40 44 38 91 -4
135 -29 30 -678 610 -812 725 -71 61 -100 71 -146 48z"/>
<path d="M5224 4866 c-38 -17 -64 -51 -64 -85 0 -40 299 -1213 316 -1238 48
-74 174 -38 174 49 0 31 -282 1171 -302 1221 -20 50 -75 74 -124 53z"/>
<path d="M4925 4848 c-23 -21 -42 -87 -180 -628 -85 -333 -155 -618 -155 -633
0 -18 11 -39 29 -58 39 -39 89 -40 131 -1 27 24 37 53 104 312 173 666 236
919 236 945 0 16 -11 38 -29 56 -38 37 -97 40 -136 7z"/>
</g>
</svg>
